# xmcd CD database file
#
# Track frame offsets:
#	150
#	10045
#	21694
#	39489
#	53727
#	65752
#	81072
#	94900
#	115188
#	132318
#	148839
#	172970
#	184341
#	206861
#	227599
#	241345
#	253471
#	275752
#
# Disc length: 3829 seconds
#
# Revision: 2
# Processed by: cddbd v1.5.2PL0 Copyright (c) Steve Scherf et al.
# Submitted via: CDex 1.70beta2
#
DISCID=100ef312
DTITLE=Various Artist - Men In Love
DYEAR=2006
DGENRE=Jazz
TTITLE0=Dean Martin - You're Nobody Till Somebody Loves You
TTITLE1=Ray Charles - Roll With My Baby
TTITLE2=Johnny Mathis - On The Sunny Side Of The Street
TTITLE3=Arthur Prysock - It's Too Late, Baby Too Late
TTITLE4=Aaron Neville - Tell It Like It Is
TTITLE5=Marvin Gaye - She Needs Me
TTITLE6=Jean Sablon - Cette Chanson Est Pour Vous
TTITLE7=Tony Bennett - All For You (Nuages)
TTITLE8=Brook Benton - Rainy Night In Georgia
TTITLE9=Mel Tormé - Blue Moon
TTITLE10=Donny Hathaway - A Song For You
TTITLE11=Nat King Cole - L O V E
TTITLE12=Harry Belafonte - Take My Mother Home
TTITLE13=Chet Baker and Paul Desmond - If You Could Se Me Now
TTITLE14=Frankie Laine - Can't Give You Anithing But Love, Baby
TTITLE15=Jerry Butler and The Impressions - For Your Precious Love
TTITLE16=Joe Jackson - Is You Is Or Is You Ain't Ma Babay
TTITLE17=Frank Sinatra - What Is This Thing Called Love
EXTD=YEAR: 2006
EXTT0=
EXTT1=
EXTT2=
EXTT3=
EXTT4=
EXTT5=
EXTT6=
EXTT7=
EXTT8=
EXTT9=
EXTT10=
EXTT11=
EXTT12=
EXTT13=
EXTT14=
EXTT15=
EXTT16=
EXTT17=
PLAYORDER=
